<svg width="24" height="24" viewBox="0 0 24 24" fill="none" xmlns="http://www.w3.org/2000/svg">
<path d="M19.0911 10.5416C19.0984 8.66648 18.3617 6.865 17.0426 5.53226C15.7235 4.19951 13.9297 3.4443 12.0546 3.43224H11.9999C10.1176 3.43707 8.31396 4.18822 6.98463 5.52097C5.6553 6.85371 4.90878 8.65925 4.90879 10.5416C4.90879 13.7135 4.25254 15.5091 3.69655 16.457C3.58285 16.652 3.52295 16.8738 3.52295 17.0996C3.52295 17.3253 3.58285 17.5471 3.69655 17.7421C3.80618 17.9377 3.96643 18.1001 4.16048 18.2124C4.35454 18.3247 4.57524 18.3826 4.79942 18.3802H8.5364V18.5625C8.5364 19.481 8.9013 20.362 9.55085 21.0115C10.2004 21.6611 11.0814 22.026 11.9999 22.026C12.9185 22.026 13.7995 21.6611 14.449 21.0115C15.0986 20.362 15.4635 19.481 15.4635 18.5625V18.3802H19.2005C19.4246 18.3826 19.6453 18.3247 19.8394 18.2124C20.0335 18.1001 20.1937 17.9377 20.3033 17.7421C20.417 17.5471 20.4769 17.3253 20.4769 17.0996C20.4769 16.8738 20.417 16.652 20.3033 16.457C19.7473 15.5091 19.0911 13.7135 19.0911 10.5416ZM14.3697 18.5625C14.3697 19.191 14.1201 19.7937 13.6756 20.2381C13.2312 20.6826 12.6284 20.9322 11.9999 20.9322C11.3714 20.9322 10.7687 20.6826 10.3242 20.2381C9.87982 19.7937 9.63015 19.191 9.63015 18.5625V18.3802H14.3697V18.5625ZM19.3554 17.1953C19.3413 17.2239 19.3191 17.2478 19.2915 17.2639C19.264 17.2801 19.2324 17.2879 19.2005 17.2864H4.79942C4.76752 17.2879 4.73587 17.2801 4.70835 17.2639C4.68082 17.2478 4.65862 17.2239 4.64447 17.1953C4.62847 17.1676 4.62004 17.1361 4.62004 17.1041C4.62004 17.0721 4.62847 17.0407 4.64447 17.013C5.26426 15.9466 6.00254 13.9596 6.00254 10.5416C6.00134 9.75283 6.15552 8.97153 6.45627 8.24233C6.75702 7.51313 7.19845 6.85031 7.75536 6.2917C8.31227 5.7331 8.97375 5.28966 9.70204 4.9867C10.4303 4.68374 11.2112 4.52719 11.9999 4.52599H12.0455C12.8309 4.52726 13.6082 4.68418 14.3325 4.98768C15.0569 5.29119 15.7139 5.73526 16.2656 6.29422C17.3786 7.42741 18.0007 8.95325 17.9973 10.5416C17.9973 13.9596 18.7356 15.9466 19.3554 17.013C19.3714 17.0407 19.3798 17.0721 19.3798 17.1041C19.3798 17.1361 19.3714 17.1676 19.3554 17.1953ZM20.7499 6.85021C20.6756 6.88463 20.5949 6.90326 20.513 6.9049C20.4108 6.90669 20.3103 6.87935 20.2231 6.82608C20.136 6.77282 20.0658 6.69583 20.0208 6.60412C19.2899 5.1186 18.1601 3.86573 16.7578 2.98563C16.6973 2.94677 16.645 2.89637 16.604 2.8373C16.563 2.77823 16.5341 2.71166 16.5188 2.6414C16.5036 2.57113 16.5024 2.49855 16.5152 2.42781C16.5281 2.35706 16.5547 2.28955 16.5937 2.22912C16.631 2.16819 16.68 2.1153 16.7379 2.07352C16.7958 2.03174 16.8615 2.00192 16.9311 1.9858C17.0007 1.96968 17.0727 1.96758 17.1431 1.97962C17.2135 1.99167 17.2808 2.01761 17.3411 2.05594C18.9127 3.0459 20.1782 4.45335 20.996 6.12105C21.0286 6.18492 21.0481 6.25466 21.0534 6.32617C21.0586 6.39768 21.0495 6.46952 21.0266 6.53746C21.0036 6.6054 20.9674 6.66807 20.9199 6.72178C20.8723 6.77549 20.8146 6.81916 20.7499 6.85021ZM3.48691 6.9049C3.40499 6.90326 3.3243 6.88463 3.24994 6.85021C3.1853 6.81916 3.12753 6.77549 3.08003 6.72178C3.03252 6.66807 2.99623 6.6054 2.9733 6.53746C2.95038 6.46952 2.94126 6.39768 2.94651 6.32617C2.95175 6.25466 2.97125 6.18492 3.00384 6.12105C3.8217 4.45335 5.08714 3.0459 6.65879 2.05594C6.71905 2.01761 6.78634 1.99167 6.85674 1.97962C6.92714 1.96758 6.99923 1.96968 7.0688 1.9858C7.13838 2.00192 7.20405 2.03174 7.26198 2.07352C7.3199 2.1153 7.36893 2.16819 7.40619 2.22912C7.44515 2.28955 7.47182 2.35706 7.48466 2.42781C7.49751 2.49855 7.49627 2.57113 7.48103 2.6414C7.4658 2.71166 7.43685 2.77823 7.39586 2.8373C7.35486 2.89637 7.30262 2.94677 7.24213 2.98563C5.83983 3.86573 4.71003 5.1186 3.9791 6.60412C3.9341 6.69583 3.86391 6.77282 3.77675 6.82608C3.68958 6.87935 3.58905 6.90669 3.48691 6.9049Z" fill="#FAFBFD"/>
</svg>
