<svg width="24" height="15" viewBox="0 0 24 15" fill="none" xmlns="http://www.w3.org/2000/svg">
<path d="M2.408 2H21.592L12 12.962L2.408 2ZM0.901996 3.318L10.494 14.278C10.6817 14.4928 10.9132 14.665 11.173 14.783C11.4327 14.9009 11.7147 14.962 12 14.962C12.2853 14.962 12.5673 14.9009 12.827 14.783C13.0868 14.665 13.3183 14.4928 13.506 14.278L23.098 3.318C24.23 2.024 23.31 7.35412e-07 21.592 7.35412e-07H2.408C2.02351 -0.000328919 1.64707 0.110176 1.32377 0.318282C1.00047 0.526388 0.74401 0.823274 0.585098 1.17339C0.426186 1.5235 0.371561 1.912 0.427765 2.29236C0.483969 2.67271 0.648618 3.02881 0.901996 3.318Z" fill="#F44848"/>
</svg>
