<svg width="24" height="15" viewBox="0 0 24 15" fill="none" xmlns="http://www.w3.org/2000/svg">
<path d="M2.40803 13H21.592L12 2.03804L2.40803 13ZM0.902027 11.682L10.494 0.722045C10.6817 0.507226 10.9133 0.335053 11.173 0.217086C11.4328 0.0991183 11.7147 0.0380859 12 0.0380859C12.2853 0.0380859 12.5673 0.0991183 12.827 0.217086C13.0868 0.335053 13.3183 0.507226 13.506 0.722045L23.098 11.682C24.23 12.976 23.31 15 21.592 15H2.40803C2.02354 15.0004 1.6471 14.8899 1.3238 14.6818C1.0005 14.4737 0.74404 14.1768 0.585128 13.8267C0.426217 13.4765 0.371592 13.088 0.427796 12.7077C0.483999 12.3273 0.648649 11.9712 0.902027 11.682Z" fill="#2EBA88"/>
</svg>
