<svg width="12" height="12" viewBox="0 0 12 12" fill="none" xmlns="http://www.w3.org/2000/svg">
<path d="M5.99416 0.166626C2.77416 0.166626 0.166664 2.77996 0.166664 5.99996C0.166664 9.21996 2.77416 11.8333 5.99416 11.8333C9.22 11.8333 11.8333 9.21996 11.8333 5.99996C11.8333 2.77996 9.22 0.166626 5.99416 0.166626ZM6 10.6666C3.42166 10.6666 1.33333 8.57829 1.33333 5.99996C1.33333 3.42163 3.42166 1.33329 6 1.33329C8.57833 1.33329 10.6667 3.42163 10.6667 5.99996C10.6667 8.57829 8.57833 10.6666 6 10.6666ZM5.87166 3.08329H5.83666C5.60333 3.08329 5.41666 3.26996 5.41666 3.50329V6.25663C5.41666 6.46079 5.52166 6.65329 5.7025 6.75829L8.12333 8.21079C8.32166 8.32746 8.57833 8.26913 8.695 8.07079C8.72429 8.02356 8.74378 7.97091 8.75229 7.91599C8.76081 7.86107 8.75819 7.805 8.74458 7.75111C8.73097 7.69722 8.70666 7.64662 8.67309 7.60233C8.63951 7.55804 8.59737 7.52096 8.54916 7.49329L6.29166 6.15163V3.50329C6.29166 3.26996 6.105 3.08329 5.87166 3.08329Z" fill="#FAFBFD"/>
</svg>
