<svg width="14" height="14" viewBox="0 0 14 14" fill="none" xmlns="http://www.w3.org/2000/svg">
<path d="M7.83398 5.75586C7.51816 5.75586 7.27344 6.00059 7.27344 6.30273C7.27344 6.60488 7.51816 6.84961 7.83398 6.84961C8.12246 6.84961 8.36719 6.60488 8.36719 6.30273C8.36719 6.00059 8.12246 5.75586 7.83398 5.75586ZM4.00586 5.75586C3.69004 5.75586 3.44531 6.00059 3.44531 6.30273C3.44531 6.60488 3.69004 6.84961 4.00586 6.84961C4.29434 6.84961 4.53906 6.60488 4.53906 6.30273C4.53906 6.00059 4.29434 5.75586 4.00586 5.75586Z" fill="#FAFBFD"/>
<path d="M12.2227 4.71668C11.5651 3.81433 10.6463 3.2114 9.63872 2.93933V2.9407C9.40493 2.68093 9.14106 2.44168 8.84575 2.2284C6.60767 0.601441 3.46588 1.09773 1.83209 3.33582C0.515492 5.15418 0.571547 7.60008 1.91412 9.33778L1.92506 11.1507C1.92506 11.1944 1.9319 11.2382 1.94557 11.2792C2.01803 11.5102 2.26412 11.6374 2.49381 11.5649L4.22466 11.0194C4.68267 11.1821 5.15572 11.2751 5.62603 11.3011L5.61919 11.3065C6.83736 12.1938 8.43423 12.4604 9.89848 11.9764L11.6362 12.5425C11.6799 12.5561 11.725 12.5643 11.7715 12.5643C12.0135 12.5643 12.209 12.3688 12.209 12.1268V10.2948C13.4135 8.65965 13.445 6.39969 12.2227 4.71668ZM4.41607 10.0487L4.25201 9.98035L2.8985 10.4042L2.88482 8.98231L2.77545 8.85926C1.61881 7.44832 1.54225 5.41531 2.62506 3.92371C3.94302 2.11629 6.46958 1.71707 8.27153 3.02136C10.079 4.33523 10.4795 6.8577 9.17387 8.65418C8.07876 10.1567 6.11822 10.7118 4.41607 10.0487ZM11.3204 9.81629L11.211 9.95301L11.2247 11.3749L9.88481 10.9237L9.72075 10.9921C8.95512 11.2764 8.13892 11.2997 7.38286 11.0878L7.38013 11.0864C8.39048 10.7761 9.30649 10.1472 9.96684 9.24207C11.0114 7.80242 11.1809 5.99363 10.5739 4.45144L10.5821 4.45691C10.8965 4.6825 11.185 4.96414 11.4297 5.30457C12.4223 6.66629 12.3663 8.5202 11.3204 9.81629Z" fill="#FAFBFD"/>
<path d="M5.91992 5.75586C5.6041 5.75586 5.35938 6.00059 5.35938 6.30273C5.35938 6.60488 5.6041 6.84961 5.91992 6.84961C6.2084 6.84961 6.45312 6.60488 6.45312 6.30273C6.45312 6.00059 6.2084 5.75586 5.91992 5.75586Z" fill="#FAFBFD"/>
</svg>
