<svg width="32" height="32" viewBox="0 0 32 32" fill="none" xmlns="http://www.w3.org/2000/svg">
<path d="M16 7C17.93 7 19.5 5.43 19.5 3.5C19.5 1.57 17.9312 0 16 0C14.0687 0 12.4437 1.57 12.4437 3.5C12.4437 5.43 14.0687 7 16 7ZM31.9437 12.3375C31.9437 12.0139 31.7869 11.7 31.5002 11.5087L29.775 10.5125C29.6187 10.4031 29.4314 10.3488 29.2439 10.3488C28.9001 10.3566 28.5796 10.5281 28.3846 10.8016C27.822 11.5516 26.9371 11.9972 25.9996 11.9972C25.8042 11.9972 25.619 11.9814 25.4315 11.9423C23.9859 11.6767 23.0015 10.3017 23.0015 8.83294C22.9437 8.375 22.5687 8 22.1625 8H19.7406C19.3656 8 19.0137 8.25 18.9356 8.61719C18.6375 10.0063 17.4187 11 15.9437 11C14.5219 11 13.3031 10.0075 13.0062 8.6175C12.9812 8.25 12.6375 8 12.2562 8H9.83437C9.31875 8 8.94375 8.375 8.94375 8.8375C8.94375 9.99312 8.09 12.0013 5.94687 12.0013C5.00125 12.0013 4.11562 11.5564 3.55312 10.7987C3.4125 10.525 3.10375 10.3563 2.75937 10.35C2.57187 10.35 2.38869 10.4059 2.23237 10.5153L0.443 11.5153C0.156812 11.7 0 12.0187 0 12.3375C0 12.4899 0.034875 12.6438 0.1075 12.7866L6.86875 27H10.1894L4.36562 14.775C4.89687 14.925 5.44438 15 5.99875 15C6.15075 15 9.55062 15.0939 11.2962 11.7188C12.3812 13.1562 14.1625 14 15.9937 14C17.83 14 19.5569 13.1637 20.6975 11.7344C21.0062 12.35 22.5375 15 26 15C26.5469 15 27.0937 14.9297 27.625 14.7812L21.8125 27H25.1331L31.8894 12.7875C31.9625 12.6438 31.9437 12.4875 31.9437 12.3375ZM26.5 29H5.49875C4.67 29 3.99875 29.6719 3.99875 30.4438C3.99875 31.2156 4.67 32 5.49875 32H26.4987C27.3275 32 27.9987 31.3281 27.9987 30.5562C27.9987 29.7844 27.3312 29 26.5 29Z" fill="url(#paint0_linear_19_92)"/>
<defs>
<linearGradient id="paint0_linear_19_92" x1="2.58115e-07" y1="8.53333" x2="36.2306" y2="26.9726" gradientUnits="userSpaceOnUse">
<stop stop-color="#F27232"/>
<stop offset="1" stop-color="#F27232"/>
</linearGradient>
</defs>
</svg>
