<svg width="16" height="16" viewBox="0 0 16 16" fill="none" xmlns="http://www.w3.org/2000/svg">
<path d="M5.14659 10.9707L6.32059 10.6321L13.3893 3.47873C13.445 3.42159 13.4761 3.34482 13.4757 3.26498C13.4753 3.18515 13.4435 3.10867 13.3873 3.05206L12.9639 2.62406C12.9366 2.59595 12.9039 2.57357 12.8678 2.55823C12.8317 2.54289 12.7929 2.53489 12.7537 2.53471C12.7144 2.53452 12.6756 2.54215 12.6393 2.55715C12.6031 2.57215 12.5702 2.59421 12.5426 2.62206L5.49259 9.75673L5.14592 10.9701L5.14659 10.9707ZM13.8019 1.77606L14.2253 2.20473C14.8093 2.79606 14.8146 3.75006 14.2359 4.33539L6.95192 11.7074L4.44259 12.4301C4.28938 12.4729 4.12543 12.4533 3.98669 12.3754C3.84796 12.2976 3.74578 12.1678 3.70259 12.0147C3.67044 11.9046 3.66998 11.7877 3.70125 11.6774L4.43125 9.11739L11.6959 1.76473C11.8341 1.62563 11.9985 1.51543 12.1797 1.44056C12.3609 1.36569 12.5551 1.32764 12.7512 1.32863C12.9472 1.32963 13.1411 1.36964 13.3215 1.44634C13.5019 1.52305 13.6652 1.63491 13.8019 1.77539V1.77606ZM6.12259 2.54473C6.45325 2.54473 6.72125 2.81606 6.72125 3.15073C6.72178 3.22984 6.70671 3.30828 6.6769 3.38156C6.64709 3.45485 6.60313 3.52153 6.54753 3.57782C6.49193 3.6341 6.42578 3.67887 6.35286 3.70957C6.27995 3.74026 6.2017 3.75629 6.12259 3.75673H3.72792C3.06659 3.75673 2.53059 4.29939 2.53059 4.96806V12.2387C2.53059 12.9081 3.06659 13.4507 3.72792 13.4507H10.9119C11.5733 13.4507 12.1099 12.9081 12.1099 12.2387V9.81539C12.1099 9.48073 12.3779 9.20939 12.7086 9.20939C13.0393 9.20939 13.3073 9.48073 13.3073 9.81606V12.2387C13.3073 13.5774 12.2346 14.6627 10.9119 14.6627H3.72792C2.40525 14.6627 1.33325 13.5774 1.33325 12.2387V4.96806C1.33325 3.63006 2.40525 2.54473 3.72792 2.54473H6.12259Z" fill="#2E65BA"/>
</svg>
