<svg width="24" height="20" viewBox="0 0 24 20" fill="none" xmlns="http://www.w3.org/2000/svg">
<path d="M22.7912 17.5484H7.58952L15.5812 9.5567L18.3812 6.7567C18.8012 6.3367 19.0345 5.7767 19.0345 5.1817C19.0345 4.59836 18.8012 4.03836 18.3812 3.61836L16.0479 1.28503C15.2079 0.445029 13.7495 0.445029 12.9095 1.28503L0.566185 13.6284C0.402852 13.8034 0.297852 14.025 0.297852 14.27V18.4584C0.297852 18.96 0.706185 19.3684 1.20785 19.3684H22.7912C23.2929 19.3684 23.7012 18.96 23.7012 18.4584C23.7012 17.9567 23.2929 17.5484 22.7912 17.5484ZM14.1929 2.56836C14.3912 2.35836 14.5545 2.35836 14.7762 2.56836L17.0979 4.89003C17.2029 4.99503 17.2145 5.12336 17.2145 5.1817C17.2145 5.2517 17.2029 5.36836 17.0979 5.47336L14.9395 7.6317L12.0345 4.7267L14.1929 2.56836ZM2.11785 17.5484V14.6434L10.7629 6.01003L13.6679 8.91503L5.02285 17.5484H2.11785Z" fill="#3080E8"/>
</svg>
