<svg width="12" height="12" viewBox="0 0 12 12" fill="none" xmlns="http://www.w3.org/2000/svg">
<path d="M5.541 1.94804C4.93315 1.33732 4.10765 0.992984 3.24599 0.990734C2.38432 0.988483 1.55703 1.32851 0.946001 1.93604C0.338462 2.54708 -0.00156015 3.37437 0.000690114 4.23603C0.00294037 5.09769 0.347278 5.92319 0.958001 6.53104L5.665 11.239C5.75876 11.3328 5.88592 11.3854 6.0185 11.3854C6.15108 11.3854 6.27824 11.3328 6.372 11.239L11.055 6.55904C11.6622 5.94805 12.0021 5.12098 11.9998 4.25956C11.9976 3.39814 11.6534 2.57286 11.043 1.96504C10.7418 1.66198 10.3838 1.42126 9.98948 1.25662C9.59517 1.09199 9.17228 1.00668 8.74499 1.00556C8.31769 1.00445 7.89437 1.08755 7.49921 1.25013C7.10405 1.4127 6.7448 1.65156 6.442 1.95304L5.995 2.40104L5.541 1.94804Z" fill="#DF1515"/>
</svg>
