<svg width="14" height="14" viewBox="0 0 14 14" fill="none" xmlns="http://www.w3.org/2000/svg">
<path fill-rule="evenodd" clip-rule="evenodd" d="M4.35462 0.621996C5.03887 0.590496 5.25704 0.583496 7.00004 0.583496C8.74304 0.583496 8.96121 0.591079 9.64487 0.621996C10.3285 0.652913 10.7952 0.761996 11.2035 0.920079C11.6311 1.08166 12.019 1.33425 12.3399 1.66091C12.6665 1.98116 12.9185 2.3685 13.0795 2.79666C13.2382 3.205 13.3467 3.67166 13.3782 4.35416C13.4097 5.03958 13.4167 5.25775 13.4167 7.00016C13.4167 8.74316 13.4091 8.96133 13.3782 9.64558C13.3473 10.3281 13.2382 10.7947 13.0795 11.2031C12.9185 11.6313 12.6661 12.0193 12.3399 12.34C12.019 12.6667 11.6311 12.9187 11.2035 13.0797C10.7952 13.2383 10.3285 13.3468 9.64604 13.3783C8.96121 13.4098 8.74304 13.4168 7.00004 13.4168C5.25704 13.4168 5.03887 13.4092 4.35462 13.3783C3.67212 13.3474 3.20546 13.2383 2.79712 13.0797C2.36891 12.9186 1.98094 12.6662 1.66021 12.34C1.33376 12.0196 1.08114 11.6318 0.919957 11.2037C0.761874 10.7953 0.653374 10.3287 0.621874 9.64616C0.590374 8.96075 0.583374 8.74258 0.583374 7.00016C0.583374 5.25716 0.590957 5.039 0.621874 4.35533C0.652791 3.67166 0.761874 3.205 0.919957 2.79666C1.08138 2.36854 1.33419 1.98076 1.66079 1.66033C1.98106 1.33396 2.36865 1.08134 2.79654 0.920079C3.20487 0.761996 3.67154 0.653496 4.35404 0.621996H4.35462ZM9.59296 1.777C8.91629 1.74608 8.71329 1.73966 7.00004 1.73966C5.28679 1.73966 5.08379 1.74608 4.40712 1.777C3.78121 1.80558 3.44171 1.91 3.21537 1.99808C2.91612 2.11475 2.70204 2.253 2.47746 2.47758C2.26457 2.68469 2.10073 2.93683 1.99796 3.2155C1.90987 3.44183 1.80546 3.78133 1.77687 4.40725C1.74596 5.08391 1.73954 5.28691 1.73954 7.00016C1.73954 8.71341 1.74596 8.91641 1.77687 9.59308C1.80546 10.219 1.90987 10.5585 1.99796 10.7848C2.10062 11.0631 2.26454 11.3157 2.47746 11.5227C2.68454 11.7357 2.93712 11.8996 3.21537 12.0022C3.44171 12.0903 3.78121 12.1947 4.40712 12.2233C5.08379 12.2542 5.28621 12.2607 7.00004 12.2607C8.71387 12.2607 8.91629 12.2542 9.59296 12.2233C10.2189 12.1947 10.5584 12.0903 10.7847 12.0022C11.084 11.8856 11.298 11.7473 11.5226 11.5227C11.7355 11.3157 11.8995 11.0631 12.0021 10.7848C12.0902 10.5585 12.1946 10.219 12.2232 9.59308C12.2541 8.91641 12.2605 8.71341 12.2605 7.00016C12.2605 5.28691 12.2541 5.08391 12.2232 4.40725C12.1946 3.78133 12.0902 3.44183 12.0021 3.2155C11.8855 2.91625 11.7472 2.70216 11.5226 2.47758C11.3155 2.2647 11.0634 2.10087 10.7847 1.99808C10.5584 1.91 10.2189 1.80558 9.59296 1.777ZM6.18046 8.97825C6.63818 9.16878 7.14784 9.1945 7.62242 9.051C8.09699 8.9075 8.50702 8.6037 8.78248 8.19147C9.05794 7.77924 9.18174 7.28417 9.13273 6.79081C9.08373 6.29744 8.86496 5.8364 8.51379 5.48641C8.28993 5.26269 8.01925 5.09139 7.72123 4.98483C7.42322 4.87828 7.10529 4.83912 6.79033 4.87019C6.47537 4.90125 6.17121 5.00177 5.89976 5.16449C5.62831 5.32721 5.39631 5.5481 5.22047 5.81124C5.04463 6.07439 4.92932 6.37325 4.88284 6.68631C4.83637 6.99936 4.85988 7.31883 4.95169 7.62171C5.0435 7.92459 5.20132 8.20335 5.41379 8.43792C5.62627 8.67248 5.8881 8.85702 6.18046 8.97825ZM4.66787 4.668C4.97414 4.36173 5.33773 4.11879 5.73788 3.95304C6.13803 3.78729 6.56692 3.70198 7.00004 3.70198C7.43316 3.70198 7.86205 3.78729 8.2622 3.95304C8.66235 4.11879 9.02594 4.36173 9.33221 4.668C9.63847 4.97426 9.88141 5.33785 10.0472 5.738C10.2129 6.13816 10.2982 6.56704 10.2982 7.00016C10.2982 7.43329 10.2129 7.86217 10.0472 8.26232C9.88141 8.66248 9.63847 9.02606 9.33221 9.33233C8.71368 9.95086 7.87477 10.2983 7.00004 10.2983C6.12531 10.2983 5.2864 9.95086 4.66787 9.33233C4.04934 8.7138 3.70186 7.87489 3.70186 7.00016C3.70186 6.12543 4.04934 5.28652 4.66787 4.668ZM11.0297 4.19316C11.1056 4.12157 11.1664 4.03548 11.2084 3.93998C11.2504 3.84449 11.2728 3.74153 11.2744 3.63721C11.2759 3.53288 11.2565 3.42932 11.2172 3.33264C11.178 3.23595 11.1198 3.14813 11.046 3.07435C10.9722 3.00058 10.8844 2.94235 10.7877 2.90313C10.6911 2.86391 10.5875 2.84448 10.4832 2.846C10.3788 2.84752 10.2759 2.86996 10.1804 2.91199C10.0849 2.95401 9.9988 3.01477 9.92721 3.09066C9.78797 3.23826 9.71174 3.43432 9.7147 3.63721C9.71766 3.84009 9.79957 4.03384 9.94305 4.17732C10.0865 4.3208 10.2803 4.40271 10.4832 4.40567C10.6861 4.40863 10.8821 4.3324 11.0297 4.19316Z" fill="#FAFBFD"/>
</svg>
