<svg width="14" height="14" viewBox="0 0 14 14" fill="none" xmlns="http://www.w3.org/2000/svg">
<path d="M6.94312 3.48885C6.597 3.48885 6.25865 3.59148 5.97087 3.78377C5.68308 3.97607 5.45878 4.24938 5.32633 4.56915C5.19387 4.88892 5.15922 5.24079 5.22674 5.58025C5.29427 5.91972 5.46094 6.23154 5.70568 6.47628C5.95042 6.72102 6.26224 6.88769 6.60171 6.95522C6.94117 7.02274 7.29304 6.98809 7.61281 6.85563C7.93258 6.72318 8.20589 6.49888 8.39819 6.21109C8.59048 5.92331 8.69312 5.58496 8.69312 5.23884C8.69259 4.77488 8.50804 4.33007 8.17997 4.00199C7.85189 3.67392 7.40708 3.48937 6.94312 3.48885ZM6.94312 6.11384C6.77006 6.11384 6.60088 6.06253 6.45699 5.96638C6.3131 5.87023 6.20095 5.73358 6.13472 5.57369C6.06849 5.41381 6.05117 5.23787 6.08493 5.06814C6.11869 4.89841 6.20203 4.7425 6.3244 4.62013C6.44677 4.49776 6.60268 4.41442 6.77241 4.38066C6.94214 4.3469 7.11808 4.36422 7.27796 4.43045C7.43785 4.49668 7.57451 4.60883 7.67065 4.75272C7.7668 4.89661 7.81812 5.06579 7.81812 5.23884C7.81785 5.47083 7.72557 5.69323 7.56154 5.85727C7.3975 6.0213 7.1751 6.11358 6.94312 6.11384Z" fill="#333333"/>
<path d="M10.306 1.87346C9.47458 1.04222 8.36469 0.548429 7.19058 0.48739C6.01647 0.426352 4.86136 0.802391 3.9482 1.54293C3.03504 2.28347 2.42856 3.33602 2.24581 4.49743C2.06305 5.65883 2.31699 6.84677 2.9586 7.83196L6.26465 12.9073C6.33822 13.0202 6.43881 13.113 6.55731 13.1773C6.67581 13.2415 6.80847 13.2751 6.94325 13.2751C7.07804 13.2751 7.21069 13.2415 7.32919 13.1773C7.44769 13.113 7.54828 13.0202 7.62185 12.9073L10.928 7.83196C11.5234 6.91805 11.7865 5.82727 11.6732 4.74245C11.56 3.65764 11.0773 2.64471 10.306 1.87346V1.87346ZM10.1949 7.35435L6.94326 12.3459L3.69163 7.35435C2.69632 5.8264 2.90979 3.78164 4.19921 2.49216C4.55956 2.1318 4.98736 1.84595 5.45819 1.65092C5.92902 1.45589 6.43364 1.35552 6.94326 1.35552C7.45288 1.35552 7.95751 1.45589 8.42834 1.65092C8.89917 1.84595 9.32697 2.1318 9.68732 2.49216C10.9767 3.78164 11.1902 5.8264 10.1949 7.35435Z" fill="#333333"/>
</svg>
