<svg width="10" height="12" viewBox="0 0 10 12" fill="none" xmlns="http://www.w3.org/2000/svg">
<path d="M5.13995 0.399902C2.05995 0.399902 0.449951 2.3599 0.449951 4.5299C0.449951 5.5799 1.00995 6.6299 1.91995 7.1899C2.19995 7.3299 2.12995 7.1899 2.33995 6.3499C2.33995 6.2799 2.33995 6.2099 2.26995 6.1399C1.00995 4.5999 2.05995 1.5899 4.99995 1.5899C9.26995 1.5899 8.42995 7.4699 5.76995 7.4699C5.20995 7.5399 4.71995 7.1199 4.71995 6.5599V6.2799C4.99995 5.5099 5.20995 4.8099 5.27995 4.0399C5.27995 2.5699 3.10995 2.7799 3.10995 4.7399C3.10995 5.0899 3.17995 5.4399 3.31995 5.7199C3.31995 5.7199 2.61995 8.5899 2.47995 9.0799C2.33995 9.9199 2.40995 10.7599 2.54995 11.5299C2.47995 11.5999 2.54995 11.5999 2.54995 11.5999H2.61995C3.10995 10.8999 3.52995 10.1999 3.80995 9.4299C3.87995 9.0799 4.22995 7.8199 4.22995 7.8199C4.57995 8.3099 5.20995 8.5899 5.83995 8.5899C8.00995 8.5899 9.54995 6.6999 9.54995 4.3899C9.54995 2.0799 7.58995 0.399902 5.13995 0.399902Z" fill="#FAFBFD"/>
</svg>
