<svg width="14" height="14" viewBox="0 0 14 14" fill="none" xmlns="http://www.w3.org/2000/svg">
<g clip-path="url(#clip0_135_1709)">
<path d="M3.16054 13.5126C2.82279 13.6858 2.43954 13.3822 2.50779 12.9946L3.23404 8.85582L0.151417 5.91932C-0.136458 5.64457 0.0131675 5.14232 0.399042 5.08807L4.68479 4.47907L6.59579 0.692949C6.76817 0.351699 7.23454 0.351699 7.40692 0.692949L9.31792 4.47907L13.6037 5.08807C13.9895 5.14232 14.1392 5.64457 13.8504 5.91932L10.7687 8.85582L11.4949 12.9946C11.5632 13.3822 11.1799 13.6858 10.8422 13.5126L7.00004 11.5386L3.15967 13.5126H3.16054Z" fill="url(#paint0_linear_135_1709)"/>
</g>
<defs>
<linearGradient id="paint0_linear_135_1709" x1="0.00122082" y1="3.93713" x2="15.4297" y2="12.3267" gradientUnits="userSpaceOnUse">
<stop stop-color="#F27232"/>
<stop offset="1" stop-color="#F27232"/>
</linearGradient>
<clipPath id="clip0_135_1709">
<rect width="14" height="14" fill="white"/>
</clipPath>
</defs>
</svg>
