<svg width="14" height="14" viewBox="0 0 14 14" fill="none" xmlns="http://www.w3.org/2000/svg">
<path d="M6.19119 1.00662C6.52215 0.331126 7.47832 0.331126 7.80866 1.00662L9.48337 4.42295L13.2266 4.97124C13.9669 5.07965 14.2617 5.99514 13.7267 6.52087L11.0175 9.18024L11.657 12.9356C11.7839 13.6781 11.01 14.244 10.3487 13.8937L6.9993 12.1203L3.65176 13.8937C2.98984 14.244 2.21657 13.6781 2.34285 12.9356L2.98238 9.18024L0.273113 6.52087C-0.261897 5.99514 0.0336028 5.07965 0.773285 4.97124L4.51649 4.42295L6.19057 1.00662H6.19119ZM6.99993 1.47972L5.34699 4.85406C5.28224 4.98616 5.18656 5.10041 5.06822 5.18698C4.94987 5.27354 4.8124 5.32983 4.66766 5.35097L0.970492 5.89237L3.64554 8.51853C3.8583 8.72782 3.95535 9.02798 3.90496 9.32311L3.27352 13.0321L6.58063 11.2807C6.71012 11.2121 6.85424 11.1762 7.00055 11.1762C7.14686 11.1762 7.29098 11.2121 7.42047 11.2807L10.727 13.0321L10.0955 9.32249C10.0451 9.02798 10.1422 8.7272 10.3549 8.51853L13.03 5.89237L9.33282 5.35097C9.18807 5.32983 9.0506 5.27354 8.93226 5.18698C8.81391 5.10041 8.71824 4.98616 8.65348 4.85406L7.00055 1.47972H6.99993Z" fill="#333333"/>
</svg>
