<svg width="14" height="14" viewBox="0 0 14 14" fill="none" xmlns="http://www.w3.org/2000/svg">
<path d="M11.7373 10.4398C11.4794 9.82895 11.1052 9.27405 10.6354 8.80605C10.167 8.33671 9.61223 7.96251 9.0016 7.7041C8.99613 7.70137 8.99066 7.7 8.98519 7.69727C9.83695 7.08203 10.3907 6.07988 10.3907 4.94922C10.3907 3.07617 8.87308 1.55859 7.00004 1.55859C5.12699 1.55859 3.60941 3.07617 3.60941 4.94922C3.60941 6.07988 4.16312 7.08203 5.01488 7.69863C5.00941 7.70137 5.00394 7.70273 4.99847 7.70547C4.38597 7.96387 3.83636 8.33438 3.36468 8.80742C2.89534 9.27578 2.52113 9.83058 2.26273 10.4412C2.00887 11.039 1.87196 11.6799 1.85941 12.3293C1.85904 12.3439 1.8616 12.3584 1.86694 12.372C1.87227 12.3856 1.88027 12.398 1.89046 12.4084C1.90065 12.4189 1.91284 12.4272 1.92629 12.4328C1.93974 12.4385 1.95419 12.4414 1.96878 12.4414H2.7891C2.84925 12.4414 2.8971 12.3936 2.89847 12.3348C2.92582 11.2793 3.34964 10.2908 4.09886 9.5416C4.87406 8.76641 5.90355 8.33984 7.00004 8.33984C8.09652 8.33984 9.12601 8.76641 9.90121 9.5416C10.6504 10.2908 11.0743 11.2793 11.1016 12.3348C11.103 12.3949 11.1508 12.4414 11.211 12.4414H12.0313C12.0459 12.4414 12.0603 12.4385 12.0738 12.4328C12.0872 12.4272 12.0994 12.4189 12.1096 12.4084C12.1198 12.398 12.1278 12.3856 12.1331 12.372C12.1385 12.3584 12.141 12.3439 12.1407 12.3293C12.127 11.6758 11.9916 11.04 11.7373 10.4398ZM7.00004 7.30078C6.3725 7.30078 5.78187 7.05605 5.33754 6.61172C4.8932 6.16738 4.64847 5.57676 4.64847 4.94922C4.64847 4.32168 4.8932 3.73105 5.33754 3.28672C5.78187 2.84238 6.3725 2.59766 7.00004 2.59766C7.62758 2.59766 8.2182 2.84238 8.66254 3.28672C9.10687 3.73105 9.3516 4.32168 9.3516 4.94922C9.3516 5.57676 9.10687 6.16738 8.66254 6.61172C8.2182 7.05605 7.62758 7.30078 7.00004 7.30078Z" fill="#333333"/>
</svg>
